# xmcd
#
# Track frame offsets:
#	150
#	19979
#	35949
#	52941
#	69928
#	87187
#	105055
#	123037
#	139407
#	155429
#	173542
#	189088
#	205153
#
# Disc length: 2955 seconds
#
# Revision: 2
# Processed by: cddbd v1.5.2PL0 Copyright (c) Steve Scherf et al.
# Submitted via: EasyCDDAExtractor 15.3.0.1
#
DISCID=9d0b890d
DTITLE=Betzaida - Te Quiero Asi
DYEAR=2006
DGENRE=Latin
TTITLE0=Angel
TTITLE1=Te Quiero Asi
TTITLE2=Que Tengas Suerte
TTITLE3=Se Fue
TTITLE4=Cuanto Te Amo (A Duo Con Pablo Montero)
TTITLE5=O Tu O Nada
TTITLE6=Sola No, Yo No Se Estar
TTITLE7=Amar Asi
TTITLE8=Perdoname (Aka Excuse Me (For The Strange Things I Do))
TTITLE9=Te Amo
TTITLE10=Tuya
TTITLE11=Te Amare
TTITLE12=Te Quiero Asi (Version Pop)
EXTD=YEAR: 2007
EXTT0=
EXTT1=
EXTT2=
EXTT3=
EXTT4=
EXTT5=
EXTT6=
EXTT7=
EXTT8=
EXTT9=
EXTT10=
EXTT11=
EXTT12=
PLAYORDER=
